# xmcd CD database file
#
# Track frame offsets:
#	150
#	15442
#	32852
#	48157
#
# Disc length: 871 seconds
#
# Revision: 0
# Processed by: cddbd v1.5PL3 Copyright (c) Steve Scherf et al.
# Submitted via: CDex 1.51
#
DISCID=24036504
DTITLE=BIIR - 翼
DYEAR=1999
DGENRE=JPop
TTITLE0=翼
TTITLE1=FUTTARI
TTITLE2=翼 (instrumental)
TTITLE3=FUTTARI (TV MIX)
EXTD=YEAR: 1999
EXTT0=
EXTT1=
EXTT2=
EXTT3=
PLAYORDER=
